<svg width="24" height="24" viewBox="0 0 24 24" fill="none" xmlns="http://www.w3.org/2000/svg">
<g clip-path="url(#clip0_605_140)">
<path d="M4.94315 5.606L1.02415 9.525C0.387771 10.1919 0.0327148 11.0782 0.0327148 12C0.0327148 12.9218 0.387771 13.8081 1.02415 14.475L4.94315 18.394C5.08152 18.5373 5.24703 18.6515 5.43004 18.7302C5.61305 18.8088 5.80988 18.8502 6.00904 18.8519C6.20821 18.8536 6.40573 18.8157 6.59008 18.7402C6.77442 18.6648 6.9419 18.5534 7.08274 18.4126C7.22358 18.2718 7.33496 18.1043 7.41038 17.9199C7.4858 17.7356 7.52375 17.5381 7.52202 17.3389C7.52029 17.1397 7.47891 16.9429 7.4003 16.7599C7.32169 16.5769 7.20741 16.4114 7.06415 16.273L4.28515 13.492L22.5351 13.469C22.933 13.469 23.3145 13.311 23.5958 13.0297C23.8771 12.7484 24.0351 12.3668 24.0351 11.969C24.0351 11.5712 23.8771 11.1896 23.5958 10.9083C23.3145 10.627 22.933 10.469 22.5351 10.469L4.30015 10.492L7.06415 7.727C7.33738 7.4441 7.48858 7.0652 7.48516 6.6719C7.48174 6.27861 7.32399 5.90239 7.04587 5.62428C6.76776 5.34616 6.39154 5.18841 5.99825 5.18499C5.60495 5.18158 5.22605 5.33277 4.94315 5.606Z" fill="#659D2D"/>
</g>
<defs>
<clipPath id="clip0_605_140">
<rect width="24" height="24" fill="white"/>
</clipPath>
</defs>
</svg>
