<svg width="24" height="24" viewBox="0 0 24 24" fill="none" xmlns="http://www.w3.org/2000/svg">
<g clip-path="url(#clip0_605_138)">
<path d="M19.0569 5.606L22.9759 9.525C23.6122 10.1919 23.9673 11.0782 23.9673 12C23.9673 12.9218 23.6122 13.8081 22.9759 14.475L19.0569 18.394C18.9185 18.5373 18.753 18.6515 18.57 18.7302C18.387 18.8088 18.1901 18.8502 17.991 18.8519C17.7918 18.8536 17.5943 18.8157 17.4099 18.7402C17.2256 18.6648 17.0581 18.5534 16.9173 18.4126C16.7764 18.2718 16.665 18.1043 16.5896 17.9199C16.5142 17.7356 16.4762 17.5381 16.478 17.3389C16.4797 17.1397 16.5211 16.9429 16.5997 16.7599C16.6783 16.5769 16.7926 16.4114 16.9359 16.273L19.7149 13.492L1.46485 13.469C1.06703 13.469 0.685497 13.311 0.404194 13.0297C0.122889 12.7484 -0.0351486 12.3668 -0.0351486 11.969C-0.0351486 11.5712 0.122889 11.1896 0.404194 10.9083C0.685497 10.627 1.06703 10.469 1.46485 10.469L19.6999 10.492L16.9359 7.727C16.6626 7.4441 16.5114 7.0652 16.5148 6.6719C16.5183 6.27861 16.676 5.90239 16.9541 5.62428C17.2322 5.34616 17.6085 5.18841 18.0018 5.18499C18.395 5.18158 18.774 5.33277 19.0569 5.606Z" fill="#659D2D"/>
</g>
<defs>
<clipPath id="clip0_605_138">
<rect width="24" height="24" fill="white" transform="matrix(-1 0 0 1 24 0)"/>
</clipPath>
</defs>
</svg>
