<svg width="15" height="14" viewBox="0 0 15 14" fill="none" xmlns="http://www.w3.org/2000/svg">
<path d="M13.597 5.2697C13.2643 4.88454 12.78 4.66861 12.2723 4.66861H12.2197C11.928 2.04835 9.69869 0 7.00257 0C4.30645 0 2.07719 2.04835 1.7854 4.66861H1.75038C1.24267 4.66861 0.758303 4.89037 0.425664 5.2697C0.0930256 5.65486 -0.0528685 6.16257 0.0171606 6.66444L0.635752 10.9946C0.880854 12.7103 2.36897 14 4.1022 14H9.92045C11.6537 14 13.1418 12.7103 13.3869 10.9946L14.0055 6.66444C14.0755 6.16257 13.9296 5.65486 13.597 5.2697ZM7.00257 1.16715C9.05676 1.16715 10.755 2.69029 11.0409 4.66861H2.96422C3.25017 2.69029 4.94838 1.16715 7.00257 1.16715Z" fill="#1F1F1F"/>
</svg>
