<svg width="14" height="14" viewBox="0 0 14 14" fill="none" xmlns="http://www.w3.org/2000/svg">
<g clip-path="url(#clip0_605_91)">
<path d="M10.2082 1.11826C9.55136 1.12847 8.90883 1.31184 8.34551 1.64983C7.78218 1.98782 7.31802 2.46848 6.99989 3.04326C6.68177 2.46848 6.21761 1.98782 5.65428 1.64983C5.09096 1.31184 4.44842 1.12847 3.79156 1.11826C2.74444 1.16375 1.75789 1.62182 1.04743 2.39239C0.336979 3.16296 -0.0396269 4.1834 -0.000105711 5.23076C-0.000105711 7.88317 2.79173 10.78 5.13323 12.7441C5.65602 13.1834 6.31702 13.4243 6.99989 13.4243C7.68277 13.4243 8.34377 13.1834 8.86656 12.7441C11.2081 10.78 13.9999 7.88317 13.9999 5.23076C14.0394 4.1834 13.6628 3.16296 12.9524 2.39239C12.2419 1.62182 11.2553 1.16375 10.2082 1.11826ZM8.11698 11.8516C7.8043 12.1149 7.40867 12.2593 6.99989 12.2593C6.59112 12.2593 6.19549 12.1149 5.88281 11.8516C2.88564 9.33684 1.16656 6.92417 1.16656 5.23076C1.12668 4.49267 1.38027 3.76876 1.87202 3.21691C2.36377 2.66506 3.05378 2.33004 3.79156 2.28492C4.52934 2.33004 5.21935 2.66506 5.7111 3.21691C6.20285 3.76876 6.45644 4.49267 6.41656 5.23076C6.41656 5.38547 6.47802 5.53384 6.58742 5.64323C6.69681 5.75263 6.84518 5.81409 6.99989 5.81409C7.1546 5.81409 7.30298 5.75263 7.41237 5.64323C7.52177 5.53384 7.58323 5.38547 7.58323 5.23076C7.54335 4.49267 7.79694 3.76876 8.28869 3.21691C8.78044 2.66506 9.47045 2.33004 10.2082 2.28492C10.946 2.33004 11.636 2.66506 12.1278 3.21691C12.6195 3.76876 12.8731 4.49267 12.8332 5.23076C12.8332 6.92417 11.1141 9.33684 8.11698 11.8493V11.8516Z" fill="#1F1F1F"/>
</g>
<defs>
<clipPath id="clip0_605_91">
<rect width="14" height="14" fill="white"/>
</clipPath>
</defs>
</svg>
